<svg version="1.0" xmlns="http://www.w3.org/2000/svg" width="256" height="256" viewBox="0 0 192 192"><path d="M70.3 41C59.8 47 57 58.2 63 70.7l2.9 6.3h-5.8c-6.7 0-15.3 2.3-17.2 4.6-1.2 1.4-.9 2 2 4.4 4.1 3.5 12.9 6 21 6h6.3l-.7 5c-.6 4.4-.4 5.3 1.4 6.8 1.3 1.1 2.9 4.9 4.4 10.6 1.7 6.6 2.9 9.2 4.4 9.9 2.4 1.1 5.6 10.5 4.7 14.1-.3 1.3-.1 3.4.6 4.5.9 1.9 2 2.1 9 2.1s8.1-.2 9-2.1c.7-1.1.9-3.2.6-4.5-.9-3.6 2.3-13 4.7-14.1 1.5-.7 2.7-3.3 4.4-9.9 1.5-5.7 3.1-9.5 4.4-10.6 1.8-1.5 2-2.4 1.4-6.8l-.7-5h6.3c8.1 0 16.9-2.5 21-6 2.9-2.4 3.2-3 2-4.4-1.9-2.3-10.5-4.6-17.2-4.6h-5.8l2.9-6.3c6-12.5 3.2-23.7-7.3-29.7-2.9-1.6-5.5-3-5.9-3-.4 0 .4 2.1 1.8 4.7 3.4 6.3 3 14.9-1.1 21.9-3.7 6.3-6.8 7.4-20.5 7.4s-16.8-1.1-20.5-7.4c-4.1-7-4.5-15.6-1.1-21.9 1.4-2.6 2.2-4.7 1.8-4.7-.4 0-3 1.4-5.9 3z"/><g fill="#E83338"><path d="M54.4 23.6c.3 2.6.6 7.8.6 11.5V42l5.3-4c2.8-2.2 7.9-4.9 11.2-5.9l6-1.9.3-5.6.3-5.6H53.7l.7 4.6zM114.2 24.6c.3 5.7.3 5.7 4.3 6.9 5.8 1.7 10.6 4.3 14.2 7.8 1.8 1.7 3.4 2.9 3.6 2.6.3-.2.7-5.5 1-11.7l.6-11.2h-24l.3 5.6zM59.3 109.2c.4 4.6 1.1 18.6 1.7 31.3.6 12.6 1.3 24 1.6 25.2.4 2.2.8 2.3 11.9 2.3H86v-10h20v10h11.5c11.1 0 11.5-.1 11.9-2.2.3-1.3 1-12.7 1.6-25.3.6-12.7 1.3-26.7 1.7-31.3.5-7.2.4-8.2-1.1-8.2-1 0-1.6.8-1.6 2.4 0 1.7-1.2 3.4-3.4 5.1-3 2.3-3.5 3.5-5.2 11.6-1.6 7.9-2.2 9.2-4.5 10.4-2.8 1.5-4.4 5.4-2.9 6.9 1.6 1.6 1.2 3.1-2.2 9l-3.3 5.6H83.2l-3.6-6c-2.9-5-3.4-6.4-2.4-7.9 1.6-2.7.2-6.8-2.6-7.5-2-.5-2.5-1.7-4.2-9.8-1.6-7.9-2.3-9.6-5.1-12.1-1.9-1.8-3.3-4-3.3-5.4 0-1.5-.6-2.3-1.6-2.3-1.5 0-1.6 1-1.1 8.2z"/></g></svg>