<?xml version="1.0" standalone="no"?>
<!DOCTYPE svg PUBLIC "-//W3C//DTD SVG 20010904//EN"
 "http://www.w3.org/TR/2001/REC-SVG-20010904/DTD/svg10.dtd">
<svg version="1.0" xmlns="http://www.w3.org/2000/svg"
 width="192.000000pt" height="192.000000pt" viewBox="0 0 192.000000 192.000000"
 preserveAspectRatio="xMidYMid meet">

<g transform="translate(0.000000,192.000000) scale(0.100000,-0.100000)"
fill="#000000" stroke="none">

<path d="M703 1510 c-105 -60 -133 -172 -73 -297 l29 -63 -58 0 c-67 0 -153
-23 -172 -46 -12 -14 -9 -20 20 -44 41 -35 129 -60 210 -60 l63 0 -7 -50 c-6
-44 -4 -53 14 -68 13 -11 29 -49 44 -106 17 -66 29 -92 44 -99 24 -11 56 -105
47 -141 -3 -13 -1 -34 6 -45 9 -19 20 -21 90 -21 70 0 81 2 90 21 7 11 9 32 6
45 -9 36 23 130 47 141 15 7 27 33 44 99 15 57 31 95 44 106 18 15 20 24 14
68 l-7 50 63 0 c81 0 169 25 210 60 29 24 32 30 20 44 -19 23 -105 46 -172 46
l-58 0 29 63 c60 125 32 237 -73 297 -29 16 -55 30 -59 30 -4 0 4 -21 18 -47
34 -63 30 -149 -11 -219 -37 -63 -68 -74 -205 -74 -137 0 -168 11 -205 74 -41
70 -45 156 -11 219 14 26 22 47 18 47 -4 0 -30 -14 -59 -30z"/> 

</g>


<g transform="translate(0.000000,192.000000) scale(0.100000,-0.100000)"
fill="#E83338" stroke="none">

<path d="M544 1684 c3 -26 6 -78 6 -115 l0 -69 53 40 c28 22 79 49 112 59 l60
19 3 56 3 56 -122 0 -122 0 7 -46z"/>
<path d="M1142 1674 c3 -57 3 -57 43 -69 58 -17 106 -43 142 -78 18 -17 34
-29 36 -26 3 2 7 55 10 117 l6 112 -120 0 -120 0 3 -56z"/>
<path d="M593 828 c4 -46 11 -186 17 -313 6 -126 13 -240 16 -252 4 -22 8 -23
119 -23 l115 0 0 50 0 50 100 0 100 0 0 -50 0 -50 115 0 c111 0 115 1 119 22
3 13 10 127 16 253 6 127 13 267 17 313 5 72 4 82 -11 82 -10 0 -16 -8 -16
-24 0 -17 -12 -34 -34 -51 -30 -23 -35 -35 -52 -116 -16 -79 -22 -92 -45 -104
-28 -15 -44 -54 -29 -69 16 -16 12 -31 -22 -90 l-33 -56 -126 0 -127 0 -36 60
c-29 50 -34 64 -24 79 16 27 2 68 -26 75 -20 5 -25 17 -42 98 -16 79 -23 96
-51 121 -19 18 -33 40 -33 54 0 15 -6 23 -16 23 -15 0 -16 -10 -11 -82z"/>
</g>

</svg>
